:FULLY-SPECIFIED
:FORCE-ALL-JOINTS-BE-3DOF
:DEGREES
1121
root 0.493789 15.0328 -26.7791 357.477 20.0888 362.176
lfemur -13.5039 2.80387 -19.0893
ltibia 61.8324 0 0
lfoot -30.6691 22.7186 0
ltoes -21.003 0 0
rfemur -51.167 -6.28528 4.4678
rtibia 38.7887 0 0
rfoot 26.6506 7.14302 0
rtoes 11.0529 0 0
lowerback 13.5203 0.0725233 -7.97811
upperback -0.751085 -0.979344 2.61317
thorax -8.24785 -0.0537087 7.57909
lowerneck -1.41166 -6.67938 -9.96745
upperneck 8.07114 -9.0617 6.48584
head 3.43753 -4.56994 3.20247
lclavicle 5.12011e-14 -1.83089e-15 0
lhumerus -16.6772 -60.6923 106.737
lradius 110.96 0 0
lwrist 30.6046 0 0
lhand -28.7153 39.4227 0
lfingers 7.12502 0 0
lthumb -2.07684 72.4562 0
rclavicle 5.12011e-14 -1.83089e-15 0
rhumerus 12.7818 28.049 -69.0047
rradius 103.527 0 0
rwrist -12.6107 0 0
rhand 6.21765 -29.6169 0
rfingers 7.12502 0 0
rthumb 31.5315 -56.9239 0
1122
root 0.496899 15.0328 -26.7284 357.471 20.204 362.176
lfemur -13.5378 2.77589 -19.1533
ltibia 61.9031 0 0
lfoot -30.7287 22.7205 0
ltoes -21.0394 0 0
rfemur -51.1903 -6.25357 4.49953
rtibia 38.7697 0 0
rfoot 26.6635 7.16615 0
rtoes 11.0728 0 0
lowerback 13.5204 0.0673179 -7.98326
upperback -0.753871 -0.986435 2.61792
thorax -8.25129 -0.0567412 7.58869
lowerneck -1.40958 -6.70935 -9.99181
upperneck 8.06743 -9.10166 6.50827
head 3.43585 -4.58957 3.21211
lclavicle 5.14089e-14 -1.79973e-15 0
lhumerus -16.6053 -60.76 106.806
lradius 111.045 0 0
lwrist 30.7796 0 0
lhand -28.7192 39.4701 0
lfingers 7.12502 0 0
lthumb -2.08063 72.2181 0
rclavicle 5.14089e-14 -1.79973e-15 0
rhumerus 12.921 28.0898 -68.9781
rradius 103.512 0 0
rwrist -12.4749 0 0
rhand 6.21815 -29.6322 0
rfingers 7.12502 0 0
rthumb 31.5319 -56.9386 0
1123
root 0.499889 15.0328 -26.6778 357.466 20.3161 362.176
lfemur -13.5738 2.74872 -19.2163
ltibia 61.9735 0 0
lfoot -30.7862 22.7215 0
ltoes -21.0758 0 0
rfemur -51.2114 -6.22231 4.53206
rtibia 38.7523 0 0
rfoot 26.673 7.18709 0
rtoes 11.0909 0 0
lowerback 13.5206 0.0623236 -7.98781
upperback -0.756742 -0.993145 2.62264
thorax -8.25489 -0.0596176 7.59784
lowerneck -1.40774 -6.73863 -10.0156
upperneck 8.06354 -9.14067 6.53025
head 3.43414 -4.60873 3.22158
lclavicle 5.16088e-14 -1.77011e-15 0
lhumerus -16.5315 -60.8244 106.873
lradius 111.128 0 0
lwrist 30.9528 0 0
lhand -28.7237 39.5178 0
lfingers 7.12502 0 0
lthumb -2.08493 71.9757 0
rclavicle 5.16088e-14 -1.77011e-15 0
rhumerus 13.0567 28.1307 -68.9524
rradius 103.498 0 0
rwrist -12.3431 0 0
rhand 6.21755 -29.6467 0
rfingers 7.12502 0 0
rthumb 31.5313 -56.9526 0
1124
root 0.50276 15.0328 -26.6272 357.462 20.425 362.176
lfemur -13.6117 2.72239 -19.2782
ltibia 62.0437 0 0
lfoot -30.8416 22.7217 0
ltoes -21.1121 0 0
rfemur -51.2305 -6.19151 4.56539
rtibia 38.7365 0 0
rfoot 26.6788 7.20583 0
rtoes 11.1073 0 0
lowerback 13.5209 0.0575419 -7.99177
upperback -0.759697 -0.999469 2.62735
thorax -8.25864 -0.0623366 7.60655
lowerneck -1.40612 -6.76722 -10.039
upperneck 8.05947 -9.17873 6.5518
head 3.43241 -4.62742 3.23087
lclavicle 5.18006e-14 -1.74205e-15 0
lhumerus -16.4558 -60.8857 106.938
lradius 111.208 0 0
lwrist 31.1241 0 0
lhand -28.7287 39.5658 0
lfingers 7.12502 0 0
lthumb -2.08976 71.7291 0
rclavicle 5.18006e-14 -1.74205e-15 0
rhumerus 13.1889 28.1714 -68.9276
rradius 103.485 0 0
rwrist -12.2154 0 0
rhand 6.21584 -29.6604 0
rfingers 7.12502 0 0
rthumb 31.5296 -56.9661 0
1125
root 0.50551 15.0328 -26.5767 357.458 20.5307 362.175
lfemur -13.6517 2.69688 -19.3391
ltibia 62.1136 0 0
lfoot -30.8951 22.721 0
ltoes -21.1485 0 0
rfemur -51.2475 -6.16118 4.59952
rtibia 38.7223 0 0
rfoot 26.6812 7.22236 0
rtoes 11.1218 0 0
lowerback 13.5213 0.0529744 -7.99512
upperback -0.762738 -1.00541 2.63204
thorax -8.26254 -0.0648971 7.61481
lowerneck -1.40474 -6.79511 -10.0617
upperneck 8.05521 -9.21584 6.5729
head 3.43065 -4.64563 3.23999
lclavicle 5.19844e-14 -1.71555e-15 0
lhumerus -16.3783 -60.9437 107
lradius 111.286 0 0
lwrist 31.2936 0 0
lhand -28.7343 39.6141 0
lfingers 7.12502 0 0
lthumb -2.09511 71.4781 0
rclavicle 5.19844e-14 -1.71555e-15 0
rhumerus 13.3176 28.2121 -68.9038
rradius 103.473 0 0
rwrist -12.0918 0 0
rhand 6.213 -29.6735 0
rfingers 7.12502 0 0
rthumb 31.5268 -56.979 0
1126
root 0.508139 15.0328 -26.5263 357.455 20.6332 362.173
lfemur -13.6938 2.67222 -19.399
ltibia 62.1833 0 0
lfoot -30.9464 22.7194 0
ltoes -21.1849 0 0
rfemur -51.2625 -6.1313 4.63446
rtibia 38.7097 0 0
rfoot 26.6799 7.23667 0
rtoes 11.1345 0 0
lowerback 13.5217 0.0486227 -7.99788
upperback -0.765865 -1.01095 2.63672
thorax -8.26659 -0.0672979 7.62262
lowerneck -1.4036 -6.82229 -10.084
upperneck 8.05077 -9.25198 6.59355
head 3.42886 -4.66336 3.24892
lclavicle 5.21601e-14 -1.69063e-15 0
lhumerus -16.2989 -60.9984 107.061
lradius 111.361 0 0
lwrist 31.4612 0 0
lhand -28.7404 39.6628 0
lfingers 7.12502 0 0
lthumb -2.10099 71.2228 0
rclavicle 5.21601e-14 -1.69063e-15 0
rhumerus 13.4427 28.2528 -68.881
rradius 103.462 0 0
rwrist -11.9723 0 0
rhand 6.20904 -29.6858 0
rfingers 7.12502 0 0
rthumb 31.523 -56.9912 0
